<svg xmlns="http://www.w3.org/2000/svg" version="1.1" xmlns:xlink="http://www.w3.org/1999/xlink" xmlns:svgjs="http://svgjs.dev/svgjs" viewBox="0 0 13.594553796107048 14.334411953298408"><g transform="matrix(1,0,0,1,1.1632168394597748,11.171695113838634)"><g><path d=" M 0.6915 0.9344999999999999 Q 0.7305 0.9344999999999999 0.75675 0.9592499999999999 Q 0.783 0.9839999999999999 0.783 1.023 Q 0.783 1.0604999999999998 0.75675 1.0852499999999998 Q 0.7305 1.1099999999999999 0.6915 1.1099999999999999 L 0.20400000000000001 1.1099999999999999 Q 0.165 1.1099999999999999 0.13875 1.0837499999999998 Q 0.1125 1.0574999999999999 0.1125 1.0185 L 0.1125 0.15149999999999986 Q 0.1125 0.11249999999999982 0.1395 0.08624999999999994 Q 0.1665 0.05999999999999983 0.2085 0.05999999999999983 Q 0.2445 0.05999999999999983 0.27225 0.08624999999999994 Q 0.3 0.11249999999999982 0.3 0.15149999999999986 L 0.3 0.9599999999999999 L 0.267 0.9344999999999999 L 0.6915 0.9344999999999999 M 1.5510175781250002 0.3074999999999999 Q 1.5900175781249999 0.3074999999999999 1.615517578125 0.3337499999999999 Q 1.641017578125 0.3599999999999999 1.641017578125 0.3989999999999999 L 1.641017578125 0.7799999999999998 Q 1.641017578125 0.9389999999999998 1.552517578125 1.0319999999999998 Q 1.464017578125 1.1249999999999998 1.297517578125 1.1249999999999998 Q 1.131017578125 1.1249999999999998 1.043267578125 1.0319999999999998 Q 0.955517578125 0.9389999999999998 0.955517578125 0.7799999999999998 L 0.955517578125 0.3989999999999999 Q 0.955517578125 0.3599999999999999 0.981017578125 0.3337499999999999 Q 1.006517578125 0.3074999999999999 1.0455175781250001 0.3074999999999999 Q 1.084517578125 0.3074999999999999 1.110017578125 0.3337499999999999 Q 1.135517578125 0.3599999999999999 1.135517578125 0.3989999999999999 L 1.135517578125 0.7799999999999998 Q 1.135517578125 0.8714999999999998 1.176017578125 0.9157499999999998 Q 1.216517578125 0.9599999999999999 1.297517578125 0.9599999999999999 Q 1.380017578125 0.9599999999999999 1.4205175781250001 0.9157499999999998 Q 1.4610175781249999 0.8714999999999998 1.4610175781249999 0.7799999999999998 L 1.4610175781249999 0.3989999999999999 Q 1.4610175781249999 0.3599999999999999 1.486517578125 0.3337499999999999 Q 1.512017578125 0.3074999999999999 1.5510175781250002 0.3074999999999999 M 2.020480224609375 1.0185 Q 2.020480224609375 1.0574999999999999 1.994980224609375 1.0837499999999998 Q 1.969480224609375 1.1099999999999999 1.930480224609375 1.1099999999999999 Q 1.8914802246093751 1.1099999999999999 1.865980224609375 1.0837499999999998 Q 1.840480224609375 1.0574999999999999 1.840480224609375 1.0185 L 1.840480224609375 0.3989999999999999 Q 1.840480224609375 0.3599999999999999 1.865980224609375 0.3337499999999999 Q 1.8914802246093751 0.3074999999999999 1.930480224609375 0.3074999999999999 Q 1.969480224609375 0.3074999999999999 1.994980224609375 0.3337499999999999 Q 2.020480224609375 0.3599999999999999 2.020480224609375 0.3989999999999999 L 2.020480224609375 1.0185 M 1.928980224609375 0.20999999999999985 Q 1.877980224609375 0.20999999999999985 1.856980224609375 0.1934999999999999 Q 1.835980224609375 0.17699999999999982 1.835980224609375 0.1349999999999999 L 1.835980224609375 0.10649999999999982 Q 1.835980224609375 0.06299999999999994 1.859230224609375 0.04724999999999979 Q 1.882480224609375 0.03149999999999986 1.930480224609375 0.03149999999999986 Q 1.982980224609375 0.03149999999999986 2.003980224609375 0.04799999999999982 Q 2.024980224609375 0.06449999999999978 2.024980224609375 0.10649999999999982 L 2.024980224609375 0.1349999999999999 Q 2.024980224609375 0.17849999999999988 2.002480224609375 0.1942499999999998 Q 1.979980224609375 0.20999999999999985 1.928980224609375 0.20999999999999985 M 2.1735146484375 0.9854999999999998 Q 2.1585146484375 0.9644999999999999 2.1600146484375 0.9314999999999999 Q 2.1615146484375 0.8984999999999999 2.1990146484374997 0.8744999999999998 Q 2.2230146484374997 0.8594999999999999 2.2500146484375 0.8617499999999999 Q 2.2770146484375 0.8639999999999999 2.3025146484375 0.8894999999999998 Q 2.3460146484375 0.9329999999999998 2.3940146484375 0.9569999999999999 Q 2.4420146484375 0.9809999999999999 2.5140146484375 0.9809999999999999 Q 2.5365146484375 0.9794999999999998 2.5635146484374998 0.9742499999999998 Q 2.5905146484375 0.9689999999999999 2.6107646484375 0.9502499999999998 Q 2.6310146484375 0.9314999999999999 2.6310146484375 0.8924999999999998 Q 2.6310146484375 0.8594999999999999 2.6085146484374997 0.8399999999999999 Q 2.5860146484374997 0.8204999999999999 2.5492646484375 0.8069999999999999 Q 2.5125146484375 0.7934999999999999 2.4675146484375 0.7814999999999999 Q 2.4210146484374997 0.7679999999999998 2.3722646484375 0.7514999999999998 Q 2.3235146484375 0.7349999999999999 2.2830146484375 0.7087499999999999 Q 2.2425146484375 0.6824999999999999 2.2170146484375 0.6389999999999998 Q 2.1915146484375 0.5954999999999999 2.1915146484375 0.5294999999999999 Q 2.1915146484375 0.4544999999999999 2.2335146484375 0.4019999999999999 Q 2.2755146484375 0.3494999999999998 2.3422646484375 0.32099999999999984 Q 2.4090146484375 0.29249999999999987 2.4825146484375 0.29249999999999987 Q 2.5290146484375 0.29249999999999987 2.5800146484375 0.30374999999999985 Q 2.6310146484375 0.31499999999999984 2.6775146484375 0.3397499999999999 Q 2.7240146484375 0.3644999999999998 2.7555146484375 0.4049999999999999 Q 2.7720146484374997 0.4274999999999999 2.7750146484375 0.45899999999999985 Q 2.7780146484375 0.4904999999999998 2.7465146484375 0.5159999999999999 Q 2.7240146484375 0.5339999999999998 2.6940146484375 0.5317499999999998 Q 2.6640146484375 0.5294999999999999 2.6445146484375 0.5114999999999998 Q 2.6190146484375 0.4784999999999998 2.5762646484375 0.45899999999999985 Q 2.5335146484375 0.4394999999999999 2.4780146484375 0.4394999999999999 Q 2.4555146484375 0.4394999999999999 2.4292646484375 0.44474999999999987 Q 2.4030146484375 0.44999999999999984 2.3835146484375 0.46724999999999983 Q 2.3640146484374998 0.4844999999999998 2.3640146484374998 0.5219999999999999 Q 2.3640146484374998 0.5564999999999999 2.3865146484375 0.5767499999999999 Q 2.4090146484375 0.5969999999999999 2.4472646484375 0.6097499999999999 Q 2.4855146484375 0.6224999999999998 2.5290146484375 0.6344999999999998 Q 2.5740146484375 0.6464999999999999 2.6205146484375 0.6629999999999998 Q 2.6670146484375 0.6794999999999999 2.7060146484375 0.7064999999999999 Q 2.7450146484375 0.7334999999999998 2.7690146484375 0.7762499999999999 Q 2.7930146484375 0.819 2.7930146484375 0.8849999999999999 Q 2.7930146484375 0.9614999999999999 2.7480146484375 1.0154999999999998 Q 2.7030146484374997 1.0695 2.6355146484375 1.0972499999999998 Q 2.5680146484375 1.1249999999999998 2.4975146484375 1.1249999999999998 Q 2.4090146484375 1.1249999999999998 2.3205146484375 1.09425 Q 2.2320146484375 1.0635 2.1735146484375 0.9854999999999998 M 3.504050537109375 0.05999999999999983 Q 3.540050537109375 0.05999999999999983 3.5678005371093753 0.08624999999999994 Q 3.595550537109375 0.11249999999999982 3.595550537109375 0.15149999999999986 L 3.595550537109375 1.0185 Q 3.595550537109375 1.0574999999999999 3.5670505371093753 1.0837499999999998 Q 3.538550537109375 1.1099999999999999 3.501050537109375 1.1099999999999999 Q 3.459050537109375 1.1099999999999999 3.433550537109375 1.0837499999999998 Q 3.408050537109375 1.0574999999999999 3.408050537109375 1.0185 L 3.408050537109375 0.15149999999999986 Q 3.408050537109375 0.11249999999999982 3.435050537109375 0.08624999999999994 Q 3.4620505371093753 0.05999999999999983 3.504050537109375 0.05999999999999983 M 4.168550537109375 0.05999999999999983 Q 4.210550537109375 0.05999999999999983 4.236050537109375 0.08624999999999994 Q 4.261550537109375 0.11249999999999982 4.261550537109375 0.15149999999999986 L 4.261550537109375 1.0185 Q 4.261550537109375 1.0574999999999999 4.235300537109375 1.0837499999999998 Q 4.209050537109375 1.1099999999999999 4.165550537109375 1.1099999999999999 Q 4.129550537109375 1.1099999999999999 4.1018005371093755 1.0837499999999998 Q 4.074050537109375 1.0574999999999999 4.074050537109375 1.0185 L 4.074050537109375 0.15149999999999986 Q 4.074050537109375 0.11249999999999982 4.102550537109376 0.08624999999999994 Q 4.131050537109375 0.05999999999999983 4.168550537109375 0.05999999999999983 M 3.4995505371093754 0.49649999999999983 L 4.168550537109375 0.49649999999999983 L 4.168550537109375 0.6689999999999998 L 3.4995505371093754 0.6689999999999998 L 3.4995505371093754 0.49649999999999983 M 4.857041748046875 1.1249999999999998 Q 4.729541748046875 1.1249999999999998 4.635791748046874 1.07175 Q 4.542041748046874 1.0185 4.491791748046875 0.9269999999999998 Q 4.441541748046875 0.8354999999999999 4.441541748046875 0.7199999999999999 Q 4.441541748046875 0.5849999999999999 4.4962917480468745 0.4897499999999999 Q 4.551041748046875 0.39449999999999985 4.639541748046875 0.3434999999999998 Q 4.728041748046875 0.29249999999999987 4.827041748046875 0.29249999999999987 Q 4.903541748046875 0.29249999999999987 4.971791748046875 0.32399999999999984 Q 5.040041748046875 0.3554999999999998 5.092541748046875 0.4102499999999999 Q 5.145041748046875 0.46499999999999986 5.1757917480468745 0.5369999999999998 Q 5.206541748046875 0.6089999999999999 5.206541748046875 0.69 Q 5.205041748046875 0.7259999999999999 5.178041748046875 0.7484999999999999 Q 5.151041748046875 0.7709999999999999 5.115041748046875 0.7709999999999999 L 4.542041748046874 0.7709999999999999 L 4.4970417480468745 0.6209999999999999 L 5.047541748046875 0.6209999999999999 L 5.014541748046875 0.6509999999999998 L 5.014541748046875 0.6104999999999998 Q 5.011541748046875 0.5669999999999998 4.983791748046875 0.5324999999999999 Q 4.956041748046875 0.4979999999999999 4.914791748046875 0.4777499999999999 Q 4.873541748046875 0.4574999999999999 4.827041748046875 0.4574999999999999 Q 4.782041748046875 0.4574999999999999 4.743041748046875 0.4694999999999999 Q 4.704041748046875 0.4814999999999998 4.675541748046875 0.5099999999999999 Q 4.647041748046875 0.5384999999999999 4.630541748046875 0.5864999999999999 Q 4.6140417480468745 0.6344999999999998 4.6140417480468745 0.7079999999999999 Q 4.6140417480468745 0.7889999999999999 4.647791748046875 0.8452499999999998 Q 4.681541748046875 0.9014999999999999 4.734791748046875 0.9307499999999999 Q 4.788041748046875 0.9599999999999999 4.8480417480468745 0.9599999999999999 Q 4.903541748046875 0.9599999999999999 4.936541748046875 0.9509999999999998 Q 4.969541748046875 0.9419999999999998 4.9897917480468745 0.9292499999999999 Q 5.010041748046875 0.9164999999999999 5.026541748046875 0.9074999999999999 Q 5.053541748046875 0.8939999999999999 5.077541748046875 0.8939999999999999 Q 5.110541748046875 0.8939999999999999 5.132291748046875 0.9164999999999999 Q 5.1540417480468745 0.9389999999999998 5.1540417480468745 0.9689999999999999 Q 5.1540417480468745 1.0094999999999998 5.112041748046875 1.0425 Q 5.073041748046875 1.0755 5.002541748046875 1.10025 Q 4.932041748046875 1.1249999999999998 4.857041748046875 1.1249999999999998 M 5.4615673828124995 1.1099999999999999 Q 5.4225673828125 1.1099999999999999 5.3970673828125 1.0837499999999998 Q 5.3715673828125 1.0574999999999999 5.3715673828125 1.0185 L 5.3715673828125 0.3989999999999999 Q 5.3715673828125 0.3599999999999999 5.3970673828125 0.3337499999999999 Q 5.4225673828125 0.3074999999999999 5.4615673828124995 0.3074999999999999 Q 5.500567382812499 0.3074999999999999 5.526067382812499 0.3337499999999999 Q 5.551567382812499 0.3599999999999999 5.551567382812499 0.3989999999999999 L 5.551567382812499 0.5399999999999998 L 5.5410673828125 0.4394999999999999 Q 5.5575673828125 0.40349999999999986 5.5838173828125 0.3757499999999998 Q 5.6100673828125 0.34799999999999986 5.643067382812499 0.3292499999999998 Q 5.6760673828125 0.3104999999999999 5.713567382812499 0.3014999999999999 Q 5.7510673828125 0.29249999999999987 5.7885673828124995 0.29249999999999987 Q 5.833567382812499 0.29249999999999987 5.8643173828125 0.31799999999999984 Q 5.895067382812499 0.3434999999999998 5.895067382812499 0.3779999999999999 Q 5.895067382812499 0.4274999999999999 5.8695673828125 0.4492499999999998 Q 5.8440673828125 0.47099999999999986 5.8140673828125 0.47099999999999986 Q 5.785567382812499 0.47099999999999986 5.762317382812499 0.4604999999999999 Q 5.739067382812499 0.44999999999999984 5.709067382812499 0.44999999999999984 Q 5.6820673828125 0.44999999999999984 5.6543173828125 0.4627499999999999 Q 5.6265673828125 0.4754999999999998 5.6033173828125 0.5024999999999998 Q 5.5800673828125 0.5294999999999999 5.5658173828125 0.5692499999999998 Q 5.551567382812499 0.6089999999999999 5.551567382812499 0.6629999999999998 L 5.551567382812499 1.0185 Q 5.551567382812499 1.0574999999999999 5.526067382812499 1.0837499999999998 Q 5.500567382812499 1.1099999999999999 5.4615673828124995 1.1099999999999999 M 6.466598876953125 0.29249999999999987 Q 6.577598876953124 0.29249999999999987 6.635348876953124 0.33899999999999986 Q 6.693098876953124 0.38549999999999984 6.714848876953124 0.4627499999999999 Q 6.736598876953124 0.5399999999999998 6.736598876953124 0.6344999999999998 L 6.736598876953124 1.0185 Q 6.736598876953124 1.0574999999999999 6.711098876953124 1.0837499999999998 Q 6.685598876953124 1.1099999999999999 6.646598876953124 1.1099999999999999 Q 6.607598876953125 1.1099999999999999 6.582098876953125 1.0837499999999998 Q 6.5565988769531245 1.0574999999999999 6.5565988769531245 1.0185 L 6.5565988769531245 0.6344999999999998 Q 6.5565988769531245 0.5849999999999999 6.543848876953124 0.5452499999999999 Q 6.531098876953124 0.5054999999999998 6.498098876953124 0.4814999999999998 Q 6.465098876953125 0.4574999999999999 6.403598876953124 0.4574999999999999 Q 6.343598876953124 0.4574999999999999 6.302348876953125 0.4814999999999998 Q 6.261098876953124 0.5054999999999998 6.239348876953124 0.5452499999999999 Q 6.217598876953124 0.5849999999999999 6.217598876953124 0.6344999999999998 L 6.217598876953124 1.0185 Q 6.217598876953124 1.0574999999999999 6.192098876953124 1.0837499999999998 Q 6.166598876953124 1.1099999999999999 6.127598876953124 1.1099999999999999 Q 6.0885988769531245 1.1099999999999999 6.063098876953124 1.0837499999999998 Q 6.037598876953124 1.0574999999999999 6.037598876953124 1.0185 L 6.037598876953124 0.3989999999999999 Q 6.037598876953124 0.3599999999999999 6.063098876953124 0.3337499999999999 Q 6.0885988769531245 0.3074999999999999 6.127598876953124 0.3074999999999999 Q 6.166598876953124 0.3074999999999999 6.192098876953124 0.3337499999999999 Q 6.217598876953124 0.3599999999999999 6.217598876953124 0.3989999999999999 L 6.217598876953124 0.4634999999999999 L 6.195098876953124 0.45899999999999985 Q 6.208598876953125 0.4334999999999999 6.234098876953124 0.4042499999999999 Q 6.259598876953124 0.3749999999999999 6.294098876953124 0.3494999999999998 Q 6.328598876953124 0.32399999999999984 6.372098876953125 0.3082499999999999 Q 6.4155988769531245 0.29249999999999987 6.466598876953125 0.29249999999999987 M 7.596111328124999 0.29249999999999987 Q 7.635111328124999 0.29249999999999987 7.660611328124999 0.31799999999999984 Q 7.686111328124999 0.3434999999999998 7.686111328124999 0.3839999999999999 L 7.686111328124999 1.0185 Q 7.686111328124999 1.0574999999999999 7.660611328124999 1.0837499999999998 Q 7.635111328124999 1.1099999999999999 7.596111328124999 1.1099999999999999 Q 7.557111328124999 1.1099999999999999 7.531611328124999 1.0837499999999998 Q 7.506111328124999 1.0574999999999999 7.506111328124999 1.0185 L 7.506111328124999 0.9449999999999998 L 7.539111328124999 0.9584999999999999 Q 7.539111328124999 0.9779999999999999 7.5181113281249985 1.00575 Q 7.497111328124999 1.0334999999999999 7.461111328124999 1.0604999999999998 Q 7.4251113281249985 1.0875 7.3763613281249985 1.10625 Q 7.327611328124999 1.1249999999999998 7.270611328124999 1.1249999999999998 Q 7.1671113281249985 1.1249999999999998 7.083111328124999 1.07175 Q 6.999111328124999 1.0185 6.950361328124999 0.9247499999999998 Q 6.901611328124999 0.8309999999999998 6.901611328124999 0.7094999999999998 Q 6.901611328124999 0.5864999999999999 6.950361328124999 0.4927499999999999 Q 6.999111328124999 0.3989999999999999 7.081611328124999 0.3457499999999999 Q 7.164111328124999 0.29249999999999987 7.264611328124999 0.29249999999999987 Q 7.329111328124998 0.29249999999999987 7.383111328124999 0.31199999999999983 Q 7.437111328124999 0.3314999999999999 7.476861328124999 0.3614999999999998 Q 7.516611328124998 0.39149999999999985 7.538361328124999 0.4222499999999999 Q 7.560111328124999 0.45299999999999985 7.560111328124999 0.47399999999999987 L 7.506111328124999 0.4934999999999998 L 7.506111328124999 0.3839999999999999 Q 7.506111328124999 0.34499999999999986 7.531611328124999 0.31874999999999987 Q 7.557111328124999 0.29249999999999987 7.596111328124999 0.29249999999999987 M 7.293111328124999 0.9599999999999999 Q 7.359111328124999 0.9599999999999999 7.408611328124999 0.9269999999999998 Q 7.458111328124999 0.8939999999999999 7.485861328124999 0.8369999999999999 Q 7.513611328124999 0.7799999999999998 7.513611328124999 0.7094999999999998 Q 7.513611328124999 0.6374999999999998 7.485861328124999 0.5804999999999999 Q 7.458111328124999 0.5234999999999999 7.408611328124999 0.4904999999999998 Q 7.359111328124999 0.4574999999999999 7.293111328124999 0.4574999999999999 Q 7.228611328124999 0.4574999999999999 7.179111328124999 0.4904999999999998 Q 7.129611328124999 0.5234999999999999 7.101861328124999 0.5804999999999999 Q 7.0741113281249985 0.6374999999999998 7.0741113281249985 0.7094999999999998 Q 7.0741113281249985 0.7799999999999998 7.101861328124999 0.8369999999999999 Q 7.129611328124999 0.8939999999999999 7.179111328124999 0.9269999999999998 Q 7.228611328124999 0.9599999999999999 7.293111328124999 0.9599999999999999 M 8.325090087890624 0.29249999999999987 Q 8.436090087890623 0.29249999999999987 8.493840087890623 0.33899999999999986 Q 8.551590087890624 0.38549999999999984 8.573340087890625 0.4627499999999999 Q 8.595090087890624 0.5399999999999998 8.595090087890624 0.6344999999999998 L 8.595090087890624 1.0185 Q 8.595090087890624 1.0574999999999999 8.569590087890624 1.0837499999999998 Q 8.544090087890623 1.1099999999999999 8.505090087890624 1.1099999999999999 Q 8.466090087890624 1.1099999999999999 8.440590087890623 1.0837499999999998 Q 8.415090087890624 1.0574999999999999 8.415090087890624 1.0185 L 8.415090087890624 0.6344999999999998 Q 8.415090087890624 0.5849999999999999 8.402340087890623 0.5452499999999999 Q 8.389590087890623 0.5054999999999998 8.356590087890623 0.4814999999999998 Q 8.323590087890624 0.4574999999999999 8.262090087890623 0.4574999999999999 Q 8.202090087890623 0.4574999999999999 8.160840087890623 0.4814999999999998 Q 8.119590087890623 0.5054999999999998 8.097840087890624 0.5452499999999999 Q 8.076090087890623 0.5849999999999999 8.076090087890623 0.6344999999999998 L 8.076090087890623 1.0185 Q 8.076090087890623 1.0574999999999999 8.050590087890624 1.0837499999999998 Q 8.025090087890623 1.1099999999999999 7.986090087890624 1.1099999999999999 Q 7.947090087890624 1.1099999999999999 7.921590087890624 1.0837499999999998 Q 7.896090087890624 1.0574999999999999 7.896090087890624 1.0185 L 7.896090087890624 0.3989999999999999 Q 7.896090087890624 0.3599999999999999 7.921590087890624 0.3337499999999999 Q 7.947090087890624 0.3074999999999999 7.986090087890624 0.3074999999999999 Q 8.025090087890623 0.3074999999999999 8.050590087890624 0.3337499999999999 Q 8.076090087890623 0.3599999999999999 8.076090087890623 0.3989999999999999 L 8.076090087890623 0.4634999999999999 L 8.053590087890624 0.45899999999999985 Q 8.067090087890623 0.4334999999999999 8.092590087890624 0.4042499999999999 Q 8.118090087890623 0.3749999999999999 8.152590087890623 0.3494999999999998 Q 8.187090087890624 0.32399999999999984 8.230590087890624 0.3082499999999999 Q 8.274090087890624 0.29249999999999987 8.325090087890624 0.29249999999999987 M 9.454602539062499 -2.220446049250313e-16 Q 9.493602539062499 -2.220446049250313e-16 9.5191025390625 0.025499999999999856 Q 9.544602539062499 0.050999999999999934 9.544602539062499 0.09149999999999991 L 9.544602539062499 1.0185 Q 9.544602539062499 1.0574999999999999 9.5191025390625 1.0837499999999998 Q 9.493602539062499 1.1099999999999999 9.454602539062499 1.1099999999999999 Q 9.4156025390625 1.1099999999999999 9.390102539062498 1.0837499999999998 Q 9.3646025390625 1.0574999999999999 9.3646025390625 1.0185 L 9.3646025390625 0.9449999999999998 L 9.397602539062499 0.9584999999999999 Q 9.397602539062499 0.9779999999999999 9.3766025390625 1.00575 Q 9.355602539062499 1.0334999999999999 9.3196025390625 1.0604999999999998 Q 9.2836025390625 1.0875 9.2348525390625 1.10625 Q 9.1861025390625 1.1249999999999998 9.1291025390625 1.1249999999999998 Q 9.025602539062499 1.1249999999999998 8.9416025390625 1.07175 Q 8.8576025390625 1.0185 8.8088525390625 0.9247499999999998 Q 8.7601025390625 0.8309999999999998 8.7601025390625 0.7094999999999998 Q 8.7601025390625 0.5864999999999999 8.8088525390625 0.4927499999999999 Q 8.8576025390625 0.3989999999999999 8.940102539062499 0.3457499999999999 Q 9.022602539062499 0.29249999999999987 9.123102539062499 0.29249999999999987 Q 9.1876025390625 0.29249999999999987 9.2416025390625 0.31199999999999983 Q 9.295602539062498 0.3314999999999999 9.3353525390625 0.3614999999999998 Q 9.3751025390625 0.39149999999999985 9.396852539062499 0.4222499999999999 Q 9.4186025390625 0.45299999999999985 9.4186025390625 0.47399999999999987 L 9.3646025390625 0.4934999999999998 L 9.3646025390625 0.09149999999999991 Q 9.3646025390625 0.05249999999999977 9.390102539062498 0.026249999999999885 Q 9.4156025390625 -2.220446049250313e-16 9.454602539062499 -2.220446049250313e-16 M 9.1516025390625 0.9599999999999999 Q 9.217602539062499 0.9599999999999999 9.267102539062499 0.9269999999999998 Q 9.3166025390625 0.8939999999999999 9.344352539062498 0.8369999999999999 Q 9.3721025390625 0.7799999999999998 9.3721025390625 0.7094999999999998 Q 9.3721025390625 0.6374999999999998 9.344352539062498 0.5804999999999999 Q 9.3166025390625 0.5234999999999999 9.267102539062499 0.4904999999999998 Q 9.217602539062499 0.4574999999999999 9.1516025390625 0.4574999999999999 Q 9.0871025390625 0.4574999999999999 9.0376025390625 0.4904999999999998 Q 8.9881025390625 0.5234999999999999 8.9603525390625 0.5804999999999999 Q 8.932602539062499 0.6374999999999998 8.932602539062499 0.7094999999999998 Q 8.932602539062499 0.7799999999999998 8.9603525390625 0.8369999999999999 Q 8.9881025390625 0.8939999999999999 9.0376025390625 0.9269999999999998 Q 9.0871025390625 0.9599999999999999 9.1516025390625 0.9599999999999999 M 10.125081298828125 1.1249999999999998 Q 9.997581298828125 1.1249999999999998 9.903831298828125 1.07175 Q 9.810081298828125 1.0185 9.759831298828125 0.9269999999999998 Q 9.709581298828125 0.8354999999999999 9.709581298828125 0.7199999999999999 Q 9.709581298828125 0.5849999999999999 9.764331298828125 0.4897499999999999 Q 9.819081298828126 0.39449999999999985 9.907581298828125 0.3434999999999998 Q 9.996081298828125 0.29249999999999987 10.095081298828125 0.29249999999999987 Q 10.171581298828125 0.29249999999999987 10.239831298828125 0.32399999999999984 Q 10.308081298828125 0.3554999999999998 10.360581298828125 0.4102499999999999 Q 10.413081298828125 0.46499999999999986 10.443831298828124 0.5369999999999998 Q 10.474581298828125 0.6089999999999999 10.474581298828125 0.69 Q 10.473081298828125 0.7259999999999999 10.446081298828124 0.7484999999999999 Q 10.419081298828125 0.7709999999999999 10.383081298828124 0.7709999999999999 L 9.810081298828125 0.7709999999999999 L 9.765081298828125 0.6209999999999999 L 10.315581298828125 0.6209999999999999 L 10.282581298828125 0.6509999999999998 L 10.282581298828125 0.6104999999999998 Q 10.279581298828125 0.5669999999999998 10.251831298828124 0.5324999999999999 Q 10.224081298828125 0.4979999999999999 10.182831298828125 0.4777499999999999 Q 10.141581298828125 0.4574999999999999 10.095081298828125 0.4574999999999999 Q 10.050081298828125 0.4574999999999999 10.011081298828124 0.4694999999999999 Q 9.972081298828124 0.4814999999999998 9.943581298828125 0.5099999999999999 Q 9.915081298828124 0.5384999999999999 9.898581298828125 0.5864999999999999 Q 9.882081298828124 0.6344999999999998 9.882081298828124 0.7079999999999999 Q 9.882081298828124 0.7889999999999999 9.915831298828124 0.8452499999999998 Q 9.949581298828125 0.9014999999999999 10.002831298828125 0.9307499999999999 Q 10.056081298828126 0.9599999999999999 10.116081298828124 0.9599999999999999 Q 10.171581298828125 0.9599999999999999 10.204581298828124 0.9509999999999998 Q 10.237581298828125 0.9419999999999998 10.257831298828124 0.9292499999999999 Q 10.278081298828125 0.9164999999999999 10.294581298828124 0.9074999999999999 Q 10.321581298828125 0.8939999999999999 10.345581298828124 0.8939999999999999 Q 10.378581298828125 0.8939999999999999 10.400331298828124 0.9164999999999999 Q 10.422081298828125 0.9389999999999998 10.422081298828125 0.9689999999999999 Q 10.422081298828125 1.0094999999999998 10.380081298828125 1.0425 Q 10.341081298828124 1.0755 10.270581298828125 1.10025 Q 10.200081298828124 1.1249999999999998 10.125081298828125 1.1249999999999998 M 11.15110693359375 0.9449999999999998 Q 11.18710693359375 0.9449999999999998 11.21110693359375 0.9682499999999998 Q 11.23510693359375 0.9914999999999998 11.23510693359375 1.0274999999999999 Q 11.23510693359375 1.0619999999999998 11.21110693359375 1.0859999999999999 Q 11.18710693359375 1.1099999999999999 11.15110693359375 1.1099999999999999 L 10.66810693359375 1.1099999999999999 Q 10.63060693359375 1.1099999999999999 10.608106933593751 1.083 Q 10.58560693359375 1.0559999999999998 10.58710693359375 1.029 Q 10.58860693359375 1.0065 10.59310693359375 0.9892499999999999 Q 10.59760693359375 0.9719999999999999 10.61560693359375 0.9494999999999999 L 10.98910693359375 0.4664999999999999 L 10.986106933593751 0.4874999999999998 L 10.68160693359375 0.4874999999999998 Q 10.64560693359375 0.4874999999999998 10.62160693359375 0.4634999999999999 Q 10.59760693359375 0.4394999999999999 10.59760693359375 0.40349999999999986 Q 10.59760693359375 0.3689999999999999 10.62160693359375 0.3457499999999999 Q 10.64560693359375 0.3224999999999999 10.68160693359375 0.3224999999999999 L 11.14360693359375 0.3224999999999999 Q 11.17810693359375 0.3224999999999999 11.20210693359375 0.34799999999999986 Q 11.22610693359375 0.37349999999999983 11.223106933593751 0.41249999999999987 Q 11.221606933593751 0.4274999999999999 11.217856933593751 0.4424999999999999 Q 11.21410693359375 0.4574999999999999 11.19760693359375 0.4784999999999998 L 10.83010693359375 0.9539999999999998 L 10.83010693359375 0.9449999999999998 L 11.15110693359375 0.9449999999999998" fill="#ffffff" fill-rule="nonzero"></path></g><g><path d=" M 4.859292297363281 1.9919999999999998 Q 4.845792297363281 1.9919999999999998 4.836792297363281 1.9829999999999999 Q 4.827792297363281 1.9739999999999998 4.827792297363281 1.9612499999999997 L 4.827792297363281 1.4977499999999997 L 4.891542297363281 1.4977499999999997 L 4.891542297363281 1.9612499999999997 Q 4.891542297363281 1.9739999999999998 4.882542297363281 1.9829999999999999 Q 4.873542297363281 1.9919999999999998 4.859292297363281 1.9919999999999998 M 4.685292297363281 1.5239999999999998 Q 4.672542297363281 1.5239999999999998 4.663917297363281 1.5161249999999997 Q 4.655292297363281 1.5082499999999999 4.655292297363281 1.4954999999999998 Q 4.655292297363281 1.4827499999999998 4.663917297363281 1.4748749999999997 Q 4.672542297363281 1.4669999999999996 4.685292297363281 1.4669999999999996 L 5.034042297363281 1.4669999999999996 Q 5.046792297363281 1.4669999999999996 5.055792297363281 1.4748749999999997 Q 5.064792297363281 1.4827499999999998 5.064792297363281 1.4954999999999998 Q 5.064792297363281 1.509 5.055792297363281 1.5164999999999997 Q 5.046792297363281 1.5239999999999998 5.034042297363281 1.5239999999999998 L 4.685292297363281 1.5239999999999998 M 5.3925778198242185 1.6004999999999998 Q 5.406077819824219 1.6004999999999998 5.414327819824218 1.6091249999999997 Q 5.422577819824219 1.6177499999999998 5.422577819824219 1.6304999999999998 L 5.422577819824219 1.9612499999999997 Q 5.422577819824219 1.9739999999999998 5.413952819824218 1.9829999999999999 Q 5.405327819824219 1.9919999999999998 5.3925778198242185 1.9919999999999998 Q 5.379827819824219 1.9919999999999998 5.3712028198242185 1.9829999999999999 Q 5.362577819824218 1.9739999999999998 5.362577819824218 1.9612499999999997 L 5.362577819824218 1.8899999999999997 L 5.376827819824219 1.8884999999999998 Q 5.376827819824219 1.9049999999999998 5.365577819824218 1.9244999999999997 Q 5.354327819824219 1.9439999999999997 5.334827819824219 1.9608749999999997 Q 5.315327819824218 1.9777499999999997 5.289077819824219 1.9886249999999999 Q 5.262827819824219 1.9994999999999998 5.232077819824219 1.9994999999999998 Q 5.1810778198242184 1.9994999999999998 5.140202819824219 1.9728749999999997 Q 5.099327819824219 1.9462499999999998 5.076077819824219 1.9004999999999999 Q 5.052827819824219 1.8547499999999997 5.052827819824219 1.7962499999999997 Q 5.052827819824219 1.7369999999999997 5.076452819824219 1.6916249999999997 Q 5.100077819824219 1.6462499999999998 5.140202819824219 1.6203749999999997 Q 5.180327819824218 1.5944999999999998 5.2305778198242185 1.5944999999999998 Q 5.262827819824219 1.5944999999999998 5.290577819824218 1.6049999999999998 Q 5.318327819824218 1.6154999999999997 5.338952819824218 1.6334999999999997 Q 5.359577819824219 1.6514999999999997 5.3708278198242185 1.6732499999999997 Q 5.382077819824219 1.6949999999999998 5.382077819824219 1.7167499999999998 L 5.362577819824218 1.7122499999999998 L 5.362577819824218 1.6304999999999998 Q 5.362577819824218 1.6177499999999998 5.3712028198242185 1.6091249999999997 Q 5.379827819824219 1.6004999999999998 5.3925778198242185 1.6004999999999998 M 5.238077819824219 1.9439999999999997 Q 5.2755778198242185 1.9439999999999997 5.304452819824219 1.9244999999999997 Q 5.333327819824219 1.9049999999999998 5.349827819824219 1.8716249999999999 Q 5.366327819824218 1.8382499999999997 5.366327819824218 1.7962499999999997 Q 5.366327819824218 1.7549999999999997 5.349827819824219 1.7216249999999997 Q 5.333327819824219 1.6882499999999998 5.304452819824219 1.6691249999999997 Q 5.2755778198242185 1.6499999999999997 5.238077819824219 1.6499999999999997 Q 5.201327819824218 1.6499999999999997 5.172452819824219 1.6687499999999997 Q 5.143577819824219 1.6874999999999998 5.127077819824218 1.7204999999999997 Q 5.110577819824218 1.7534999999999998 5.110577819824218 1.7962499999999997 Q 5.110577819824218 1.8382499999999997 5.127077819824218 1.8716249999999999 Q 5.143577819824219 1.9049999999999998 5.172452819824219 1.9244999999999997 Q 5.201327819824218 1.9439999999999997 5.238077819824219 1.9439999999999997 M 5.537334411621094 1.5997499999999998 Q 5.551584411621094 1.5997499999999998 5.561334411621094 1.6124999999999998 L 5.822334411621094 1.9454999999999998 Q 5.828334411621094 1.9537499999999999 5.828334411621094 1.9634999999999998 Q 5.828334411621094 1.9762499999999998 5.819334411621094 1.9852499999999997 Q 5.810334411621094 1.9942499999999999 5.798334411621094 1.9942499999999999 Q 5.784084411621094 1.9942499999999999 5.773584411621094 1.9807499999999998 L 5.512584411621094 1.6484999999999999 Q 5.506584411621094 1.6402499999999998 5.506584411621094 1.6304999999999998 Q 5.506584411621094 1.6169999999999998 5.515959411621094 1.6083749999999997 Q 5.525334411621094 1.5997499999999998 5.537334411621094 1.5997499999999998 M 5.537334411621094 1.9934999999999998 Q 5.527584411621094 1.9934999999999998 5.517834411621094 1.9859999999999998 Q 5.508084411621094 1.9784999999999997 5.508084411621094 1.9664999999999997 Q 5.508084411621094 1.9567499999999998 5.515584411621094 1.9477499999999999 L 5.6385844116210935 1.7924999999999998 L 5.670084411621094 1.8419999999999999 L 5.561334411621094 1.9814999999999998 Q 5.552334411621094 1.9934999999999998 5.537334411621094 1.9934999999999998 M 5.798334411621094 1.5997499999999998 Q 5.811084411621094 1.5997499999999998 5.818959411621094 1.6079999999999997 Q 5.8268344116210935 1.6162499999999997 5.8268344116210935 1.6267499999999997 Q 5.8268344116210935 1.6312499999999996 5.824959411621094 1.6364999999999998 Q 5.823084411621094 1.6417499999999998 5.819334411621094 1.6462499999999998 L 5.697084411621094 1.8029999999999997 L 5.665584411621094 1.7572499999999998 L 5.773584411621094 1.6132499999999999 Q 5.784084411621094 1.5997499999999998 5.798334411621094 1.5997499999999998 M 6.0825591430664065 1.9994999999999998 Q 6.022559143066407 1.9994999999999998 5.977559143066407 1.9739999999999998 Q 5.932559143066407 1.9484999999999997 5.907809143066407 1.9038749999999998 Q 5.883059143066407 1.8592499999999998 5.883059143066407 1.8007499999999999 Q 5.883059143066407 1.7354999999999998 5.908934143066407 1.6893749999999996 Q 5.934809143066406 1.6432499999999997 5.976059143066407 1.6188749999999998 Q 6.017309143066407 1.5944999999999998 6.063809143066407 1.5944999999999998 Q 6.099059143066406 1.5944999999999998 6.130934143066407 1.6072499999999998 Q 6.162809143066407 1.6199999999999997 6.187934143066407 1.6443749999999997 Q 6.213059143066407 1.6687499999999997 6.228059143066407 1.7028749999999997 Q 6.243059143066406 1.7369999999999997 6.243809143066406 1.7789999999999997 Q 6.243059143066406 1.7909999999999997 6.234059143066407 1.7992499999999998 Q 6.225059143066407 1.8074999999999997 6.213059143066407 1.8074999999999997 L 5.9168091430664065 1.8074999999999997 L 5.903309143066407 1.7557499999999997 L 6.192059143066407 1.7557499999999997 L 6.180059143066407 1.7662499999999999 L 6.180059143066407 1.7497499999999997 Q 6.177809143066407 1.7189999999999999 6.160184143066407 1.6968749999999997 Q 6.142559143066407 1.6747499999999997 6.117059143066407 1.6627499999999997 Q 6.091559143066407 1.6507499999999997 6.063809143066407 1.6507499999999997 Q 6.041309143066407 1.6507499999999997 6.019184143066407 1.6586249999999998 Q 5.997059143066407 1.6664999999999996 5.979434143066407 1.6841249999999999 Q 5.961809143066406 1.7017499999999997 5.951309143066407 1.7294999999999998 Q 5.9408091430664065 1.7572499999999998 5.9408091430664065 1.7962499999999997 Q 5.9408091430664065 1.8397499999999998 5.958434143066406 1.8727499999999997 Q 5.976059143066407 1.9057499999999998 6.007559143066406 1.9248749999999997 Q 6.039059143066407 1.9439999999999997 6.0803091430664065 1.9439999999999997 Q 6.107309143066407 1.9439999999999997 6.1268091430664064 1.9372499999999997 Q 6.146309143066406 1.9304999999999999 6.160184143066407 1.9203749999999997 Q 6.1740591430664065 1.9102499999999998 6.183809143066407 1.8997499999999998 Q 6.193559143066406 1.8929999999999998 6.203309143066407 1.8929999999999998 Q 6.213809143066407 1.8929999999999998 6.2213091430664065 1.9004999999999999 Q 6.228809143066407 1.9079999999999997 6.228809143066407 1.9184999999999999 Q 6.228809143066407 1.9312499999999997 6.216809143066406 1.9409999999999998 Q 6.195059143066406 1.9642499999999998 6.159434143066407 1.9818749999999998 Q 6.123809143066406 1.9994999999999998 6.0825591430664065 1.9994999999999998 M 6.315828552246095 1.9304999999999999 Q 6.309078552246095 1.9207499999999997 6.309828552246095 1.9098749999999998 Q 6.310578552246095 1.8989999999999998 6.322578552246094 1.8907499999999997 Q 6.3300785522460945 1.8854999999999997 6.340203552246095 1.8862499999999998 Q 6.350328552246094 1.8869999999999998 6.358578552246095 1.8959999999999997 Q 6.379578552246095 1.9207499999999997 6.406578552246095 1.9353749999999998 Q 6.433578552246095 1.9499999999999997 6.472578552246095 1.9499999999999997 Q 6.490578552246094 1.9492499999999997 6.508578552246094 1.9439999999999997 Q 6.526578552246095 1.9387499999999998 6.538953552246094 1.9256249999999997 Q 6.551328552246094 1.9124999999999999 6.551328552246094 1.8907499999999997 Q 6.551328552246094 1.8697499999999998 6.538578552246094 1.8573749999999998 Q 6.525828552246095 1.8449999999999998 6.505578552246094 1.8371249999999997 Q 6.485328552246094 1.8292499999999998 6.461328552246094 1.8232499999999998 Q 6.436578552246094 1.8164999999999998 6.412578552246094 1.8078749999999997 Q 6.388578552246094 1.7992499999999998 6.369453552246094 1.7861249999999997 Q 6.350328552246094 1.7729999999999997 6.338703552246095 1.7531249999999998 Q 6.327078552246094 1.7332499999999997 6.327078552246094 1.7047499999999998 Q 6.327078552246094 1.6709999999999998 6.345453552246094 1.6462499999999998 Q 6.363828552246095 1.6214999999999997 6.394953552246094 1.6079999999999997 Q 6.426078552246095 1.5944999999999998 6.462828552246094 1.5944999999999998 Q 6.483828552246094 1.5944999999999998 6.506703552246094 1.5993749999999998 Q 6.529578552246094 1.6042499999999997 6.551328552246094 1.6158749999999997 Q 6.573078552246095 1.6274999999999997 6.589578552246095 1.6477499999999998 Q 6.596328552246095 1.6552499999999997 6.597078552246095 1.6664999999999996 Q 6.597828552246095 1.6777499999999996 6.5873285522460945 1.6867499999999997 Q 6.579078552246094 1.6927499999999998 6.568953552246095 1.6919999999999997 Q 6.558828552246094 1.6912499999999997 6.552078552246094 1.6844999999999999 Q 6.536328552246094 1.6657499999999998 6.512703552246094 1.6556249999999997 Q 6.489078552246094 1.6454999999999997 6.460578552246094 1.6454999999999997 Q 6.442578552246094 1.6454999999999997 6.425328552246095 1.6507499999999997 Q 6.408078552246095 1.6559999999999997 6.396453552246094 1.6683749999999997 Q 6.384828552246095 1.6807499999999997 6.384828552246095 1.7024999999999997 Q 6.385578552246095 1.7227499999999998 6.398328552246094 1.7354999999999998 Q 6.411078552246094 1.7482499999999999 6.432828552246095 1.7561249999999997 Q 6.454578552246095 1.7639999999999998 6.480828552246095 1.7714999999999999 Q 6.504828552246094 1.7774999999999999 6.526953552246095 1.7853749999999997 Q 6.549078552246095 1.7932499999999998 6.567078552246095 1.8059999999999998 Q 6.585078552246094 1.8187499999999996 6.595578552246095 1.8386249999999997 Q 6.606078552246094 1.8584999999999998 6.606078552246094 1.8884999999999998 Q 6.606078552246094 1.9229999999999998 6.5865785522460945 1.9481249999999997 Q 6.567078552246095 1.9732499999999997 6.535203552246094 1.9863749999999998 Q 6.503328552246095 1.9994999999999998 6.466578552246094 1.9994999999999998 Q 6.425328552246095 1.9994999999999998 6.385203552246095 1.9837499999999997 Q 6.345078552246094 1.9679999999999997 6.315828552246095 1.9304999999999999" fill="#fbe5c1" fill-rule="nonzero"></path></g><g clip-path="url(&quot;#SvgjsClipPath1001&quot;)"><g clip-path="url(&quot;#a&quot;)"><path d=" M 8.246393406236951 -3.2537816010785336 C 8.246393406236951 -3.2537816010785336 10.161614899445642 -1.2545521246234674 10.228821286042745 -1.2545521246234674 C 10.295974164370264 -1.2545521246234674 10.37998214761664 -0.9185736999075331 10.37998214761664 -0.9185736999075331 L 10.295974164370264 -0.5825952751916024 L 10.069099101335457 -0.39777771204956913 L 9.741574983213745 -0.39777771204956913 C 9.741574983213745 -0.39777771204956913 9.38879496184854 -0.7505577334147766 9.313187776926796 -0.7505577334147766 C 9.237580592005056 -0.7505577334147766 7.557581451886229 -2.497763260130707 7.4903750652891254 -2.497763260130707 C 7.423168678692022 -2.497763260130707 8.246393406236951 -3.2537816010785336 8.246393406236951 -3.2537816010785336" fill="#bdbfc3" transform="matrix(1,0,0,1,0,0)" fill-rule="nonzero"></path></g><g clip-path="url(&quot;#a&quot;)"><path d=" M 5.725886367497666 -6.910964810583952 L 5.725886367497666 -6.971910729639764 C 5.725886367497666 -7.480613848571818 5.356946848718186 -7.9039712775179005 4.872750517255458 -7.990654674243464 L 4.872750517255458 -8.264456489703159 L 4.507128511190167 -8.264456489703159 L 4.507128511190167 -7.990654674243464 C 4.022985687997023 -7.9039712775179005 3.6540461692175437 -7.480613848571818 3.6540461692175437 -6.971910729639764 C 3.6540461692175437 -6.533089410783997 3.944060990361094 -6.152592105774444 4.410920642478709 -5.978904262705814 C 4.474123631946529 -5.9558888787186115 4.537775224144896 -5.934124601117151 4.6018381483532504 -5.913624173813735 C 4.710888001764824 -5.877934158001409 4.823736942316807 -5.84101345198867 4.927275443961229 -5.7917323357020996 C 5.2024684744301 -5.661011633109167 5.360264361432375 -5.436330409127291 5.360264361432375 -5.175477594906847 C 5.360264361432375 -4.805895976892364 5.059547886372089 -4.505179501832077 4.6899662683576055 -4.505179501832077 C 4.326966167501915 -4.505179501832077 4.0262496924416284 -4.799849542429407 4.019668175282836 -5.161940002702176 L 4.018544501621578 -5.221762248096731 L 3.653190036904205 -5.221762248096731 L 3.6540461692175437 -5.160013704997163 C 3.660895227724255 -4.659657876120164 4.029406680347066 -4.243095997411209 4.507128511190167 -4.156787158572731 L 4.507128511190167 -3.882931834843453 L 4.872750517255458 -3.882931834843453 L 4.872750517255458 -4.156733650303147 C 5.356946848718186 -4.243470555298295 5.725886367497666 -4.66672096770521 5.725886367497666 -5.175477594906847 C 5.725886367497666 -5.406847352586683 5.64862042621883 -5.619221674564312 5.489700865555299 -5.824693429765647 C 5.339075086677237 -6.0194100227806615 5.107812345536568 -6.1196845199804795 4.9232088154728695 -6.185232150220489 C 4.872429467637957 -6.203317945339773 4.820472937872203 -6.220173050258632 4.768141850219362 -6.237081663447075 C 4.595952238699078 -6.292944296892438 4.417823209255005 -6.350733228042813 4.2764543610149195 -6.456305043931415 C 4.118016374777641 -6.574718844520101 4.019668175282835 -6.772217867553468 4.019668175282835 -6.971910729639764 C 4.019668175282835 -7.341492347654247 4.320331142073538 -7.642208822714534 4.689966268357605 -7.642208822714534 C 5.059547886372089 -7.642208822714534 5.360264361432375 -7.341492347654247 5.360264361432375 -6.971910729639764 L 5.360264361432375 -6.910964810583952 Z" fill="#e8a941" transform="matrix(1,0,0,1,0,0)" fill-rule="nonzero"></path></g><g clip-path="url(&quot;#a&quot;)"><path d=" M 8.49130075612146 -6.073720916408098 C 8.49130075612146 -8.173385414871733 6.789202700664572 -9.875483470328621 4.689538202200936 -9.875483470328621 C 2.5899272120068844 -9.875483470328621 0.8878291565499968 -8.173385414871733 0.8878291565499968 -6.073720916408098 C 0.8878291565499968 -3.9740564179444604 2.5899272120068844 -2.271958362487573 4.689538202200936 -2.271958362487573 C 6.789202700664572 -2.271958362487573 8.49130075612146 -3.9740564179444604 8.49130075612146 -6.073720916408098 Z M 4.790668831714093 -1.6198530810712555 C 7.1946348593001215 -1.6198530810712555 9.143406037537776 -3.568624259308911 9.143406037537776 -5.97259028689494 M 8.20347977403084 -3.2711182804236465 L 10.234386146079444 -1.2402119083750396 C 10.429471092115815 -1.0435664771600806 10.428844939493121 -0.7262010651310149 10.232985563948674 -0.5303269555629821 C 10.037126188404226 -0.33445284599495295 9.719760824375271 -0.33380281964540615 9.52310071850357 -0.5288729725295944 L 7.49219434645497 -2.5597793445781933" fill="none" transform="matrix(1,0,0,1,0,0)" fill-rule="nonzero" stroke-dasharray="none" stroke-miterlimit="10" stroke-linejoin="miter" stroke-linecap="round" stroke-width="0.2659896081004775" stroke="#e8a941"></path></g></g></g><defs><clipPath id="SvgjsClipPath1001"><path d=" M 0.7548343524997572 -10.00847827437886 h 9.758451412187984 v 9.75847827437886 h -9.758451412187984 Z"></path></clipPath><clipPath id="a"><path d=" M 0.7548075983649651 -0.24854314818068168 L 10.514715970428352 -0.24854314818068168 L 10.514715970428352 -10.00845152024407 L 0.7548075983649651 -10.00845152024407 Z"></path></clipPath></defs></svg>